<?xml version="1.0" encoding="utf-8"?>
<!-- Generator: Adobe Illustrator 30.0.0, SVG Export Plug-In . SVG Version: 9.03 Build 0)  -->
<svg version="1.1" xmlns="http://www.w3.org/2000/svg" xmlns:xlink="http://www.w3.org/1999/xlink" x="0px" y="0px"
	 viewBox="0 0 1920 1920" style="enable-background:new 0 0 1920 1920;" xml:space="preserve">
<g>
</g>
<g id="_x34_">
	<path style="fill:#020E19;" d="M300.7099304,1498.8382568c6.7010498-0.7609863,12.5488892-5.1818848,18.4663696-8.5111084
		c10.9550476-6.503418,24.5822754-8.8557129,37.1020508-6.335083c7.3342896,1.4663086,14.7269592,3.8640137,22.2081299,3.7662354
		c7.7177429,0.0653076,15.1791382-2.5201416,22.7367249-4.0289307c14.3213196-2.9835205,29.6430054,1.2982178,40.9953918,10.2471924
		c7.2195435,5.59375,14.7498779,9.1072998,23.0902405,3.4377441c23.0868225-18.0689697,52.7054443-27.4981689,81.9529419-22.4705811
		c11.5999146,1.678833,21.1390381-2.043457,27.2124023-12.4909668
		c42.7728271-75.7601318,97.4642334-155.788208,185.4512939-163.3122559
		c58.265686-4.9437256,116.3070679,27.3195801,150.130188,75.4102783
		c5.2948608,6.7825928,11.5144043,12.015625,19.6898804,14.677002
		c30.3483887,6.1119385,55.9333496,16.5152588,73.7108154,43.4837646
		c6.1595459,9.3500977,12.3779907,21.0543213,24.401062,22.8813477c11.8120117,1.7404785,24.2053223-3.6337891,34.3276367-9.6981201
		c32.5147705-19.3608398,48.6171875-59.3114014,85.1115723-72.2694092
		c20.838501-7.0367432,44.770874,0.7854004,55.4399414,20.2142334c3.4630127,4.9833984,7.0411377,7.6412354,12.3707275,7.1518555
		c76.3598633-28.6834717,165.4998779,7.0406494,196.3634033,83.8179932
		c2.6870117,4.5626221,5.8457031,7.1260986,10.0789795,7.3085938c4.9790039,0.2633057,10.9433594-2.4509277,15.8411865-4.2497559
		c18.130249-7.0668945,38.5554199-7.7570801,57.2813721-2.6807861c8.4656982,2.2998047,17.3493652,2.7180176,23.0606689-5.0091553
		c18.196167-29.8179932,43.9990234-43.3603516,79.1912842-38.8262939
		c11.6350098,0.8614502,19.7543945-6.8858643,27.7722168-14.4945068
		c21.3013916-19.7579346,57.0517578-16.7297363,73.4477539,7.7567139
		c6.7731934,8.4101562,7.9654541,20.5441895,13.8631592,29.1015625c4.0614014,6.1223145,12.6582031,8.4162598,20.3547363,9.0352783
		c68.9356689,7.0378418,85.3428955-15.4482422,187.6379395-15.4482422V1920H0v-462.6971436
		c77.4780731,0,125.3641129-23.6824951,190.4673767-3.9228516c19.4889221,5.654541,38.412674,12.8032227,56.7741852,21.3804932
		c11.8419037,5.5202637,23.429306,11.7193604,34.632309,18.3582764c5.955658,3.5090332,12.7585144,6.5775146,18.6544189,5.7402344
		L300.7099304,1498.8382568z"/>
</g>
</svg>
