<?xml version="1.0" encoding="utf-8"?>
<!-- Generator: Adobe Illustrator 30.0.0, SVG Export Plug-In . SVG Version: 9.03 Build 0)  -->
<svg version="1.1" xmlns="http://www.w3.org/2000/svg" xmlns:xlink="http://www.w3.org/1999/xlink" x="0px" y="0px"
	 viewBox="0 0 1920 1920" style="enable-background:new 0 0 1920 1920;" xml:space="preserve">
<g>
</g>
<g id="_x33_">
	<path style="fill:#031F3D;" d="M1920,1205.0631104c-67.4553223,0-89.713623,51.3948975-111.0626221,57.4804688
		c-11.4812012,3.2727051-23.6976318-1.7471924-33.734375-8.211792s-19.2612305-14.5662842-30.5270996-18.5168457
		c-11.2659912-3.9506836-25.7497559-2.3695068-32.375,7.5621338c-8.7791748,13.1605225,0.7006836,32.4656982-7.2868652,46.1208496
		c-9.1501465,15.6424561-38.265625,6.3267822-54.3641357,9.5910645
		c-22.9125977,4.6461182-44.5324707,16.1381836-60.6558838,33.1430664
		c3.0727539-14.4086914-9.9101562-28.0842285-24.1081543-32.0168457
		c-14.1981201-3.9324951-29.2454834-1.0792236-43.9248047,0.1724854s-30.8508301,0.3758545-41.9742432-9.2841797
		c-12.1844482-10.581543-16.2717285-30.0325928-31.2104492-36.1369629
		c-21.0335693-8.5947266-40.2515869,16.1137695-62.2658691,21.739502
		c-22.2785645,5.6931152-46.8383789-8.9122314-68.2366943-0.4946289
		c-26.666748,10.4901123-30.9168701,49.0144043-55.4764404,63.77771
		c-26.5072021,15.934082-60.1481934,3.248291-82.5612793-12.3419189
		c-31.4581299-21.8815918-70.3615723-28.3422852-108.0458984-24.5673828
		c-47.3746338,4.7456055-92.3496704,22.7340088-139.0209961,32.1497803s-98.9765625,8.9929199-137.3028564-19.2553711
		c-34.2025146-25.2088623-63.6547852-61.8564453-104.8134766-76.6845703
		c-24.4917603-8.8234863-54.9266968-6.4199219-72.5663452,12.7254639
		c-13.3095703,14.4456787-19.0482788,37.3249512-37.4266357,44.2572021
		c-10.1586914,3.8317871-21.4874268,1.4782715-32.3094482,2.3531494
		c-40.0866089,3.2408447-39.547699,42.3120117-65.3692932,62.5894775
		c-12.5297241,9.8394775-35.0516052,9.220459-40.5917053-5.7165527
		c-5.9109802-15.9370117,10.3514404-27.5893555,8.1256104-42.0753174
		c-2.2793579-14.8341064-21.1157837-24.8282471-34.5311279-25.755249
		c-18.54245-1.2813721-36.1539917,7.3917236-52.7119446,15.8355713
		c-10.7409668-9.4973145-3.5698853-27.2546387,5.4472046-38.4017334
		c9.0170898-11.1472168,20.0982056-24.7332764,14.8334656-38.0693359
		c-4.3535156-11.027832-18.6821289-15.199707-30.1360474-12.1379395
		c-11.4538879,3.0617676-20.639801,11.3869629-29.3426208,19.4384766
		c-13.0234375,12.0487061-26.046875,24.0975342-39.0703125,36.1462402
		c-4.7441101-23.8922119-10.040802-48.9519043-25.9683533-67.3815918s-46.1925659-26.8814697-64.9486847-11.3395996
		c-11.8545685,9.822998-16.28685,26.3746338-27.7268829,36.6773682
		c-17.7557373,15.9904785-34.9812164,6.5085449-52.5185165-1.8380127
		C96.1362839,1217.9804688,78.7016983,1205.0631104,0,1205.0631104V1920h1920V1205.0631104z"/>
</g>
</svg>
